<?xml version="1.0" encoding="UTF-8" standalone="no"?><!DOCTYPE svg PUBLIC "-//W3C//DTD SVG 1.1//EN" "http://www.w3.org/Graphics/SVG/1.1/DTD/svg11.dtd"><svg width="100%" height="100%" viewBox="0 0 282 35" version="1.1" xmlns="http://www.w3.org/2000/svg" xmlns:xlink="http://www.w3.org/1999/xlink" xml:space="preserve" xmlns:serif="http://www.serif.com/" style="fill-rule:evenodd;clip-rule:evenodd;stroke-linejoin:round;stroke-miterlimit:1.41421;"><g><g><path d="M10.368,33.928c-3.264,0 -5.808,-0.936 -7.632,-2.808c-1.824,-1.872 -2.736,-4.596 -2.736,-8.172l0,-14.436l2.664,0l0,14.328c0,2.928 0.66,5.112 1.98,6.552c1.32,1.44 3.228,2.16 5.724,2.16c2.52,0 4.44,-0.72 5.76,-2.16c1.32,-1.44 1.98,-3.624 1.98,-6.552l0,-14.328l2.592,0l0,14.436c0,3.576 -0.906,6.3 -2.718,8.172c-1.812,1.872 -4.35,2.808 -7.614,2.808Z" style="fill:#626262;fill-rule:nonzero;"/><path d="M28.728,8.512l2.664,0l0,22.896l14.112,0l0,2.304l-16.776,0l0,-25.2Z" style="fill:#626262;fill-rule:nonzero;"/><path d="M52.488,10.816l-8.856,0l0,-2.304l20.376,0l0,2.304l-8.856,0l0,22.896l-2.664,0l0,-22.896Z" style="fill:#626262;fill-rule:nonzero;"/><rect x="68.256" y="8.512" width="2.664" height="25.2" style="fill:#626262;fill-rule:nonzero;"/><path d="M105.3,8.512l0,25.2l-2.556,0l0,-20.16l-9.9,16.956l-1.26,0l-9.9,-16.848l0,20.052l-2.556,0l0,-25.2l2.196,0l10.944,18.684l10.836,-18.684l2.196,0Z" style="fill:#626262;fill-rule:nonzero;"/><path d="M146.7,10.816l-8.856,0l0,-2.304l20.376,0l0,2.304l-8.856,0l0,22.896l-2.664,0l0,-22.896Z" style="fill:#626262;fill-rule:nonzero;"/><path d="M180.288,31.408l0,2.304l-17.82,0l0,-25.2l17.28,0l0,2.304l-14.616,0l0,8.964l13.032,0l0,2.268l-13.032,0l0,9.36l15.156,0Z" style="fill:#626262;fill-rule:nonzero;"/><path d="M213.732,21.112l2.556,0l0,9.612c-1.176,1.032 -2.568,1.824 -4.176,2.376c-1.608,0.552 -3.3,0.828 -5.076,0.828c-2.52,0 -4.788,-0.552 -6.804,-1.656c-2.016,-1.104 -3.6,-2.634 -4.752,-4.59c-1.152,-1.956 -1.728,-4.146 -1.728,-6.57c0,-2.424 0.576,-4.614 1.728,-6.57c1.152,-1.956 2.736,-3.486 4.752,-4.59c2.016,-1.104 4.296,-1.656 6.84,-1.656c1.92,0 3.684,0.306 5.292,0.918c1.608,0.612 2.964,1.518 4.068,2.718l-1.656,1.692c-1.992,-1.968 -4.524,-2.952 -7.596,-2.952c-2.04,0 -3.882,0.45 -5.526,1.35c-1.644,0.9 -2.934,2.148 -3.87,3.744c-0.936,1.596 -1.404,3.378 -1.404,5.346c0,1.968 0.468,3.744 1.404,5.328c0.936,1.584 2.22,2.832 3.852,3.744c1.632,0.912 3.468,1.368 5.508,1.368c2.592,0 4.788,-0.648 6.588,-1.944l0,-8.496Z" style="fill:#626262;fill-rule:nonzero;"/><path d="M239.616,26.98l-14.04,0l-3.024,6.732l-2.772,0l11.52,-25.2l2.628,0l11.52,25.2l-2.808,0l-3.024,-6.732Zm-0.972,-2.16l-6.048,-13.536l-6.048,13.536l12.096,0Z" style="fill:#626262;fill-rule:nonzero;"/><rect x="249.624" y="8.512" width="2.664" height="25.2" style="fill:#626262;fill-rule:nonzero;"/><path d="M281.556,8.512l0,25.2l-2.196,0l-16.2,-20.448l0,20.448l-2.664,0l0,-25.2l2.196,0l16.236,20.448l0,-20.448l2.628,0Z" style="fill:#626262;fill-rule:nonzero;"/></g><path id="fire" d="M124.878,1.631c0,-1.627 -2.096,-2.24 -3.018,-0.891c-8.467,12.375 3.564,12.932 3.564,18.948c0,2.435 -1.989,4.406 -4.433,4.374c-2.404,-0.031 -4.317,-2.035 -4.317,-4.439l0,-5.846c0,-1.483 -1.809,-2.203 -2.832,-1.128c-1.83,1.923 -3.73,5.215 -3.73,9.226c0,7.237 5.888,13.125 13.125,13.125c7.237,0 13.125,-5.888 13.125,-13.125c0,-11.641 -11.484,-13.193 -11.484,-20.244Z" style="fill:#626262;fill-rule:nonzero;"/></g></svg>