<?xml version="1.0" encoding="UTF-8" standalone="no"?><!DOCTYPE svg PUBLIC "-//W3C//DTD SVG 1.1//EN" "http://www.w3.org/Graphics/SVG/1.1/DTD/svg11.dtd"><svg width="100%" height="100%" viewBox="0 0 64 64" version="1.1" xmlns="http://www.w3.org/2000/svg" xmlns:xlink="http://www.w3.org/1999/xlink" xml:space="preserve" xmlns:serif="http://www.serif.com/" style="fill-rule:evenodd;clip-rule:evenodd;stroke-linejoin:round;stroke-miterlimit:1.41421;"><g><path d="M60.705,24.889l-5.987,0c-0.963,0 -1.756,-0.53 -2.124,-1.419c-0.369,-0.889 -0.182,-1.825 0.498,-2.505l4.233,-4.233c0.622,-0.622 0.965,-1.45 0.965,-2.33c0,-0.88 -0.343,-1.707 -0.965,-2.331l-5.396,-5.396c-1.245,-1.244 -3.415,-1.247 -4.661,0l-4.233,4.232c-0.68,0.679 -1.619,0.869 -2.505,0.499c-0.889,-0.368 -1.419,-1.161 -1.419,-2.124l0,-5.987c0,-1.817 -1.478,-3.295 -3.295,-3.295l-7.632,0c-1.817,0 -3.295,1.478 -3.295,3.295l0,5.987c0,0.963 -0.53,1.756 -1.419,2.124c-0.886,0.371 -1.825,0.18 -2.505,-0.499l-4.233,-4.232c-1.246,-1.247 -3.416,-1.244 -4.661,0l-5.396,5.396c-0.622,0.622 -0.965,1.451 -0.965,2.331c0,0.88 0.343,1.707 0.965,2.33l4.233,4.233c0.68,0.68 0.866,1.616 0.498,2.505c-0.367,0.889 -1.161,1.419 -2.124,1.419l-5.987,0c-1.817,0 -3.295,1.478 -3.295,3.295l0,7.631c0,1.818 1.478,3.296 3.295,3.296l5.987,0c0.963,0 1.756,0.53 2.124,1.419c0.369,0.889 0.182,1.825 -0.498,2.505l-4.233,4.233c-0.622,0.622 -0.965,1.45 -0.965,2.33c0,0.88 0.343,1.707 0.965,2.331l5.396,5.396c1.246,1.246 3.415,1.248 4.661,0l4.233,-4.233c0.68,-0.68 1.615,-0.867 2.505,-0.498c0.889,0.368 1.419,1.161 1.419,2.124l0,5.987c0,1.817 1.478,3.295 3.295,3.295l7.631,0c1.817,0 3.295,-1.478 3.295,-3.295l0,-5.987c0,-0.963 0.53,-1.756 1.419,-2.124c0.89,-0.37 1.825,-0.182 2.505,0.498l4.232,4.233c1.247,1.247 3.417,1.244 4.662,0l5.396,-5.396c0.622,-0.622 0.965,-1.451 0.965,-2.331c0,-0.88 -0.343,-1.707 -0.965,-2.33l-4.234,-4.233c-0.679,-0.68 -0.865,-1.616 -0.497,-2.505c0.367,-0.889 1.162,-1.419 2.125,-1.419l5.987,0c1.817,0 3.295,-1.478 3.295,-3.295l0,-7.632c0,-1.817 -1.478,-3.295 -3.295,-3.295Zm0.925,10.927c0,0.51 -0.415,0.925 -0.925,0.925l-5.987,0c-1.925,0 -3.578,1.104 -4.314,2.882c-0.738,1.778 -0.35,3.729 1.012,5.089l4.233,4.233c0.362,0.361 0.362,0.948 0,1.308l-5.396,5.396c-0.36,0.36 -0.947,0.363 -1.308,0l-4.233,-4.233c-1.361,-1.362 -3.311,-1.747 -5.089,-1.012c-1.778,0.736 -2.882,2.389 -2.882,4.314l0,5.987c0,0.51 -0.415,0.925 -0.925,0.925l-7.632,0c-0.51,0 -0.925,-0.415 -0.925,-0.925l0,-5.987c0,-1.925 -1.104,-3.578 -2.882,-4.314c-0.596,-0.248 -1.21,-0.369 -1.817,-0.369c-1.202,0 -2.367,0.474 -3.272,1.38l-4.233,4.233c-0.362,0.363 -0.949,0.36 -1.308,0l-5.396,-5.396c-0.362,-0.362 -0.362,-0.948 0,-1.309l4.233,-4.232c1.361,-1.36 1.75,-3.311 1.012,-5.089c-0.736,-1.777 -2.389,-2.881 -4.314,-2.881l-5.987,0c-0.51,0 -0.925,-0.415 -0.925,-0.925l0,-7.632c0,-0.51 0.415,-0.925 0.925,-0.925l5.987,0c1.925,0 3.578,-1.104 4.314,-2.882c0.738,-1.778 0.35,-3.729 -1.012,-5.089l-4.233,-4.233c-0.362,-0.361 -0.362,-0.948 0,-1.308l5.396,-5.396c0.36,-0.362 0.947,-0.362 1.308,0l4.233,4.232c1.359,1.36 3.309,1.749 5.089,1.012c1.778,-0.735 2.882,-2.388 2.882,-4.313l0,-5.987c0,-0.51 0.415,-0.925 0.925,-0.925l7.631,0c0.511,0 0.926,0.415 0.926,0.925l0,5.987c0,1.925 1.104,3.578 2.882,4.314c1.78,0.738 3.729,0.349 5.089,-1.012l4.233,-4.232c0.362,-0.361 0.949,-0.361 1.308,0l5.396,5.396c0.362,0.362 0.362,0.948 0,1.309l-4.233,4.232c-1.361,1.36 -1.75,3.311 -1.012,5.089c0.736,1.778 2.389,2.882 4.314,2.882l5.987,0c0.51,-0.001 0.925,0.414 0.925,0.924l0,7.632Z" style="fill:#ebebeb;fill-rule:nonzero;"/><path d="M32,21.333c-5.882,0 -10.667,4.785 -10.667,10.667c0,5.882 4.785,10.667 10.667,10.667c5.882,0 10.667,-4.785 10.667,-10.667c0,-5.882 -4.785,-10.667 -10.667,-10.667Zm0,18.963c-4.574,0 -8.296,-3.722 -8.296,-8.296c0,-4.574 3.722,-8.296 8.296,-8.296c4.574,0 8.296,3.722 8.296,8.296c0,4.574 -3.722,8.296 -8.296,8.296Z" style="fill:#ebebeb;fill-rule:nonzero;"/></g></svg>