<?xml version="1.0" encoding="UTF-8" standalone="no"?><!DOCTYPE svg PUBLIC "-//W3C//DTD SVG 1.1//EN" "http://www.w3.org/Graphics/SVG/1.1/DTD/svg11.dtd"><svg width="100%" height="100%" viewBox="0 0 77 64" version="1.1" xmlns="http://www.w3.org/2000/svg" xmlns:xlink="http://www.w3.org/1999/xlink" xml:space="preserve" xmlns:serif="http://www.serif.com/" style="fill-rule:evenodd;clip-rule:evenodd;stroke-miterlimit:10;"><g><rect x="6.394" y="0" width="64" height="64" style="fill:none;"/><path d="M63.894,43.905l-51,0l2.502,-4.363l7.891,-13.664c1.411,-2.437 3.656,-2.437 5.068,0c0,0 1.86,3.144 2.052,3.529c1.091,-1.797 6.672,-11.483 6.672,-11.483c1.411,-2.438 3.657,-2.438 5.068,0l11.098,19.245c0.577,-0.962 1.155,-1.989 1.54,-2.759c1.026,-1.732 2.63,-1.732 3.656,0c1.027,1.732 2.631,4.619 3.657,6.351l1.796,3.144Z" style="fill:none;stroke:#ebebeb;stroke-width:2.57px;"/></g></svg>