<?xml version="1.0" encoding="UTF-8" standalone="no"?><!DOCTYPE svg PUBLIC "-//W3C//DTD SVG 1.1//EN" "http://www.w3.org/Graphics/SVG/1.1/DTD/svg11.dtd"><svg width="100%" height="100%" viewBox="0 0 64 64" version="1.1" xmlns="http://www.w3.org/2000/svg" xmlns:xlink="http://www.w3.org/1999/xlink" xml:space="preserve" xmlns:serif="http://www.serif.com/" style="fill-rule:evenodd;clip-rule:evenodd;stroke-linejoin:round;stroke-miterlimit:1.41421;"><g><path d="M32,0c-17.645,0 -32,14.355 -32,32c0,17.645 14.355,32 32,32c17.645,0 32,-14.355 32,-32c0,-17.645 -14.355,-32 -32,-32Zm0,58.182c-14.437,0 -26.182,-11.745 -26.182,-26.182c0,-14.436 11.745,-26.182 26.182,-26.182c14.437,0 26.182,11.746 26.182,26.182c0,14.437 -11.745,26.182 -26.182,26.182Z" style="fill:#ebebeb;fill-rule:nonzero;"/><path d="M32,13.576c-2.139,0 -3.878,1.741 -3.878,3.88c0,2.138 1.739,3.877 3.878,3.877c2.138,0 3.878,-1.739 3.878,-3.877c0,-2.139 -1.74,-3.88 -3.878,-3.88Z" style="fill:#ebebeb;fill-rule:nonzero;"/><path d="M32,27.152c-1.607,0 -2.909,1.302 -2.909,2.909l0,17.454c0,1.607 1.302,2.909 2.909,2.909c1.607,0 2.909,-1.302 2.909,-2.909l0,-17.454c0,-1.607 -1.302,-2.909 -2.909,-2.909Z" style="fill:#ebebeb;fill-rule:nonzero;"/></g></svg>