<?xml version="1.0" encoding="UTF-8" standalone="no"?><!DOCTYPE svg PUBLIC "-//W3C//DTD SVG 1.1//EN" "http://www.w3.org/Graphics/SVG/1.1/DTD/svg11.dtd"><svg width="100%" height="100%" viewBox="0 0 406 28" version="1.1" xmlns="http://www.w3.org/2000/svg" xmlns:xlink="http://www.w3.org/1999/xlink" xml:space="preserve" xmlns:serif="http://www.serif.com/" style="fill-rule:evenodd;clip-rule:evenodd;stroke-linejoin:round;stroke-miterlimit:1.41421;"><path id="REMNANT" d="M23.279,28l-5.83,-11.209c0.892,0.003 1.772,-0.209 2.564,-0.618c0.803,-0.411 1.519,-0.976 2.105,-1.662c0.607,-0.709 1.088,-1.516 1.424,-2.387c0.352,-0.903 0.531,-1.865 0.526,-2.834c0.009,-1.062 -0.177,-2.116 -0.548,-3.111c-0.334,-0.913 -0.832,-1.758 -1.468,-2.493c-0.603,-0.687 -1.332,-1.251 -2.148,-1.662c-0.801,-0.408 -1.688,-0.619 -2.587,-0.618l-17.317,0l0,26.594l3.069,0l0,-23.915l13.678,0c0.613,-0.008 1.215,0.162 1.732,0.49c0.507,0.324 0.947,0.744 1.293,1.236c0.698,1.01 1.08,2.204 1.1,3.431c-0.005,0.547 -0.078,1.091 -0.219,1.62c-0.145,0.565 -0.39,1.099 -0.724,1.577c-0.331,0.478 -0.756,0.884 -1.249,1.193c-0.543,0.326 -1.168,0.488 -1.8,0.469l-4.208,0l7.319,13.899l3.288,0Zm58.177,-11.214l-13.108,0l0,-2.686l13.108,0l0,2.686Zm-20.474,-15.386l20.824,0l0,2.685l-17.755,0l0,21.225l17.755,0l0,2.69l-20.824,0l0,-26.6Zm81.545,6.137l-5.656,11.635l-5.743,-11.635l-9.908,20.463l-3.376,0l13.284,-27.4l5.743,11.593l5.568,-11.593l13.591,27.4l-3.376,0l-10.127,-20.463Zm52.609,-3.665l17.624,24.128l4.823,0l0,-26.6l-3.069,0l0,24.08l-17.318,-24.08l-5.129,0l0,26.6l3.069,0l0,-24.128Zm83.87,24.128l-11.05,-21.613l-9.514,18.923l12.889,0l1.886,2.69l-19.6,0l14.336,-28l14.467,28l-3.414,0Zm42.525,-24.123l17.622,24.123l4.823,0l0,-26.6l-3.07,0l0,24.08l-17.316,-24.08l-5.13,0l0,26.6l3.069,0l0,-24.128l0.002,0.005Zm59.58,0.213l10.39,0l0,23.91l3.069,0l0,-23.915l10.436,0l0,-2.685l-23.9,0l0,2.685l0.005,0.005Z" style="fill:#fff;"/></svg>